<svg xmlns="http://www.w3.org/2000/svg" viewBox="0 0 60 72" fill="none">
  <defs>
    <linearGradient id="flameGrad" x1="30" y1="4" x2="30" y2="68" gradientUnits="userSpaceOnUse">
      <stop offset="0%" stop-color="#F5A623"/>
      <stop offset="55%" stop-color="#E8621A"/>
      <stop offset="100%" stop-color="#C0392B"/>
    </linearGradient>
  </defs>

  <!-- Outer flame shape: tall teardrop -->
  <path d="
    M30 4
    C30 4, 52 24, 52 44
    C52 58, 42 68, 30 68
    C18 68, 8 58, 8 44
    C8 24, 30 4, 30 4 Z
  " fill="url(#flameGrad)"/>

  <!-- Inner spiral: red swirl -->
  <path d="
    M30 56
    C24 56, 18 51, 18 44
    C18 37, 23 32, 30 32
    C37 32, 42 37, 42 44
    C42 49, 38 53, 33 53
    C28 53, 25 49, 25 44
    C25 41, 27 38, 30 38
  "
    stroke="#8B1A1A"
    stroke-width="3.5"
    stroke-linecap="round"
    fill="none"
  />
</svg>
